<svg xmlns="http://www.w3.org/2000/svg" viewBox="0 0 128 128"><g fill="#763DC6"><path d="M126.6 94.9c-.6-1-1.9-1.3-3-.9-8.1 3.5-14.4 1.4-16.2.7-.2-3.8-2.1-7.4-5.5-9.7-5.2-3.5-12-2.8-16.3 1.5L1.6 29c-.2-.1-.4-.1-.5.1-.4.6-.3 1.5.3 2L55 77.4c.8.7 1.9 1.1 3 1.1l9.6.1 15.5 11.1c-2.9 5.6-1.2 12.5 4.3 16.1 4.8 3.2 11.2 2.7 15.6-1 1.8-1.5 2.9-3.4 3.6-5.3 3.3 1.1 10.3 2.6 18.8-1.2.1 0 .1-.1.2-.1 1.3-.7 1.8-2.2 1-3.3zM60.5 75.5c-.5.6-1.2.9-2 .9-.6 0-1.2-.2-1.6-.6l-1.8-1.5c-1.1-.9-1.2-2.5-.3-3.6.9-1.1 2.5-1.2 3.6-.3l1.8 1.5c1 .9 1.2 2.5.3 3.6zm40 23.7c-2.2 3.2-6.6 3.9-9.8 1.8-3.2-2.2-4-6.5-1.8-9.7 2.2-3.2 6.6-3.9 9.8-1.8 3.2 2.2 4 6.6 1.8 9.7zm-39.4 2.6l-1.4-18.3h-1.6c-.7 0-1.4-.1-2.1-.2l1 18.9c-5.9 1.4-10.1 6.8-9.8 12.9.4 7 6.4 12.3 13.4 11.9 7-.4 12.4-6.3 12.1-13.3-.2-6.3-5.3-11.3-11.6-11.9zm-.7 19.7c-4 .2-7.3-2.8-7.5-6.7-.2-3.9 2.8-7.2 6.8-7.5 4-.2 7.3 2.8 7.5 6.7.2 3.9-2.8 7.3-6.8 7.5z"/><path d="M64.3 65.5L53.6 2.3C53.5 1.5 52.8 1 52 1c-.2 0-.3.2-.3.3L54.8 59l9.5 6.5z"/></g></svg>