<svg xmlns="http://www.w3.org/2000/svg" viewBox="0 0 100 100"><path fill="white" d="M45.374 87.676h-.004l.002-3.556h.002c2.065 0 3.265-2.639 3.908-4.854 2.451-8.441.29-19.232-1.146-20.982a2.96 2.96 0 0 0-.151.168c-4.545 5.468-10.441 8.887-14.667 8.516-1.824-.162-3.28-1.047-4.101-2.491-1.032-1.819-1.564-4.456-2.078-7.004-.361-1.796-1.208-5.998-2.067-6.233-1.556-.426-3.231-1.849-4.173-3.539-.687-1.237-.881-2.458-.561-3.535.359-1.208 1.54-3.37 3.303-6.529.786-1.412 1.53-2.745 1.99-3.671 1.103-2.216.861-5.434.366-6.376-1.213-2.309-1.495-12.498.803-15.153l2.689 2.329-1.343-1.166 1.345 1.164c-1.033 1.269-1.116 9.583-.342 11.175 1.08 2.057 1.209 6.512-.333 9.612-.498 1-1.26 2.37-2.068 3.817-1.149 2.063-2.725 4.888-2.998 5.81-.123.548 1.194 2.336 2.261 2.629 2.976.814 3.774 4.771 4.617 8.963.458 2.275.93 4.626 1.683 5.951.15.265.451.624 1.32.703 2.53.233 7.458-2.24 11.616-7.245 1.804-2.169 3.6-1.604 4.287-1.26 4.451 2.218 5.302 16.407 3.477 24.145-1.678 7.117-5.079 8.612-7.637 8.612m33.092-34.18l-2.372-.079.034-.954-.881-.363.904-2.193 2.411.994-.035.829c0 .002-.027.682-.061 1.766m-5.686-2.414l-3.7-1.525.904-2.192 3.7 1.525-.904 2.192zm-6.166-2.542l-1.258-.519-2.351-.425.421-2.333 2.717.518 1.375.567-.904 2.192zm-6.234-1.417l-3.938-.711.421-2.333 3.938.71-.421 2.334z"/><path d="M51.216 46.311l-.227-3.293 3.249.586-.421 2.335-.253-.046.018.256z"/><path fill="white" d="M75.671 95.147c-1.011-.219-2.192-.673-3.513-1.354l1.084-2.109c1.138.586 2.124.972 2.933 1.149l-.504 2.314zm3.341-.68l-1.825-1.516c.042-.051.254-.373.254-1.74 0-.257-.007-.533-.02-.815l2.369-.099c.014.317.021.624.021.914.001 1.584-.247 2.59-.799 3.256m-8.946-1.863a43.005 43.005 0 0 1-2.946-2.007l1.408-1.906a41.88 41.88 0 0 0 2.788 1.898l-1.25 2.015zm-4.816-3.451a58.88 58.88 0 0 1-2.686-2.313l1.605-1.746c.83.761 1.695 1.507 2.57 2.215l-1.489 1.844zm12.019-1.019c-.069-.891-.148-1.898-.187-2.919l-.023-.587 2.371-.091.021.587c.037.974.113 1.957.183 2.826l-2.365.184zm-16.411-2.928a46.555 46.555 0 0 1-2.419-2.614l1.806-1.537c.688.81 1.46 1.642 2.291 2.475l-1.678 1.676zm16.111-2.886a1569.39 1569.39 0 0 0-.141-3.462l2.369-.099c.049 1.155.096 2.322.142 3.468l-2.37.093zm-20.021-1.605c-.822-1.124-1.47-2.185-1.924-3.152l2.149-1.006c.388.828.957 1.757 1.688 2.756l-1.913 1.402zm19.78-4.162c-.055-1.215-.11-2.382-.166-3.452l2.367-.125c.057 1.077.112 2.25.169 3.471l-2.37.106zm-22.527-1.347a48.84 48.84 0 0 1-.838-3.451l2.323-.476a46.15 46.15 0 0 0 .797 3.278l-2.282.649zm22.228-4.4c-.096-1.483-.182-2.472-.256-2.939-.022-.139-.043-.29-.062-.458l2.358-.261c.014.126.028.24.045.346.088.547.18 1.582.28 3.162l-2.365.15zm-23.49-1.371a65.533 65.533 0 0 1-.454-3.498l2.359-.245c.123 1.191.267 2.293.438 3.37l-2.343.373zm23.027-4.427a96.442 96.442 0 0 1-.037-2.905l.001-.593 2.371.004-.001.587a102.6 102.6 0 0 0 .036 2.836l-2.37.071zm-23.688-1.403a133.039 133.039 0 0 1-.214-3.488l2.368-.118c.066 1.319.134 2.409.211 3.427l-2.365.179zm26.046-4.386l-2.372-.038c.019-1.217.046-2.411.075-3.476l2.37.062a300.467 300.467 0 0 0-.073 3.452m-26.367-1.416l-.073-1.734-.117-1.693 2.367-.162.193 3.486-2.37.103zm-.347-5.733l-.236-3.456 2.364-.162.237 3.458-2.365.16z"/><path fill="white" d="M25.597 12.485c-3.23 12.307-.495 31.969 35.411 37.502l12.847 1.186s10.869-21.147 1.384-34.587C65.75 3.146 53.167 3.098 44.667 7.346c0 0-17.849.486-19.07 5.139"/><path fill="white" d="M76.044 21.703c6.324 13.46 2.038 35.558 2.804 48.332.704 11.748-9.672-3.741-11.154-7.003-1.482-3.261-3.409 3.854-3.112 6.521.296 2.671-10.229-1.185-12.304-9.484-2.076-8.303-1.334-8.45-2.668-13.638-1.334-5.189 6.375-25.792 6.375-25.792l20.059 1.064z"/></svg>