<svg width="153" height="153" viewBox="0 0 153 153" fill="none" xmlns="http://www.w3.org/2000/svg">
<circle cx="76.5" cy="76.5" r="76.5" fill="#F02FC2"/>
<circle cx="76.5" cy="76.5" r="76.5" fill="url(#paint0_linear)"/>
<path d="M99.0766 23H48L48.1306 60.6709H58.8423V141.735L61.9775 144H77L79.6126 141.735V60.6709H99.0766L106 56.4985V27.1724L99.0766 23Z" fill="#FFEC3E"/>
<mask id="mask0" mask-type="alpha" maskUnits="userSpaceOnUse" x="48" y="23" width="58" height="121">
<path d="M99.0766 23H48L48.1306 60.6709H58.8423V141.735L61.9775 144H77L79.6126 141.735V60.6709H99.0766L106 56.4985V27.1724L99.0766 23Z" fill="#FFEC3E"/>
</mask>
<g mask="url(#mask0)">
<ellipse cx="60.6712" cy="114.306" rx="1.30631" ry="1.72075" fill="#763DC6"/>
<ellipse cx="60.6712" cy="114.306" rx="1.30631" ry="1.72075" fill="url(#paint1_linear)"/>
<ellipse cx="64.0675" cy="114.306" rx="1.30631" ry="1.72075" fill="#763DC6"/>
<ellipse cx="64.0675" cy="114.306" rx="1.30631" ry="1.72075" fill="url(#paint2_linear)"/>
<ellipse cx="67.464" cy="114.306" rx="1.30631" ry="1.72075" fill="#763DC6"/>
<ellipse cx="67.464" cy="114.306" rx="1.30631" ry="1.72075" fill="url(#paint3_linear)"/>
<ellipse cx="70.8603" cy="114.306" rx="1.30631" ry="1.72075" fill="#763DC6"/>
<ellipse cx="70.8603" cy="114.306" rx="1.30631" ry="1.72075" fill="url(#paint4_linear)"/>
<ellipse cx="74.2567" cy="114.306" rx="1.30631" ry="1.72075" fill="#763DC6"/>
<ellipse cx="74.2567" cy="114.306" rx="1.30631" ry="1.72075" fill="url(#paint5_linear)"/>
<ellipse cx="77.6532" cy="114.306" rx="1.30631" ry="1.72075" fill="#763DC6"/>
<ellipse cx="77.6532" cy="114.306" rx="1.30631" ry="1.72075" fill="url(#paint6_linear)"/>
<ellipse cx="60.6712" cy="118.124" rx="1.30631" ry="1.72074" fill="#763DC6"/>
<ellipse cx="60.6712" cy="118.124" rx="1.30631" ry="1.72074" fill="url(#paint7_linear)"/>
<ellipse cx="64.0675" cy="118.124" rx="1.30631" ry="1.72074" fill="#763DC6"/>
<ellipse cx="64.0675" cy="118.124" rx="1.30631" ry="1.72074" fill="url(#paint8_linear)"/>
<ellipse cx="67.464" cy="118.124" rx="1.30631" ry="1.72074" fill="#763DC6"/>
<ellipse cx="67.464" cy="118.124" rx="1.30631" ry="1.72074" fill="url(#paint9_linear)"/>
<ellipse cx="70.8603" cy="118.124" rx="1.30631" ry="1.72074" fill="#763DC6"/>
<ellipse cx="70.8603" cy="118.124" rx="1.30631" ry="1.72074" fill="url(#paint10_linear)"/>
<ellipse cx="74.2567" cy="118.124" rx="1.30631" ry="1.72074" fill="#763DC6"/>
<ellipse cx="74.2567" cy="118.124" rx="1.30631" ry="1.72074" fill="url(#paint11_linear)"/>
<ellipse cx="77.6532" cy="118.124" rx="1.30631" ry="1.72074" fill="#763DC6"/>
<ellipse cx="77.6532" cy="118.124" rx="1.30631" ry="1.72074" fill="url(#paint12_linear)"/>
<ellipse cx="60.6712" cy="122.254" rx="1.30631" ry="1.72075" fill="#763DC6"/>
<ellipse cx="60.6712" cy="122.254" rx="1.30631" ry="1.72075" fill="url(#paint13_linear)"/>
<ellipse cx="64.0675" cy="122.254" rx="1.30631" ry="1.72075" fill="#763DC6"/>
<ellipse cx="64.0675" cy="122.254" rx="1.30631" ry="1.72075" fill="url(#paint14_linear)"/>
<ellipse cx="67.464" cy="122.254" rx="1.30631" ry="1.72075" fill="#763DC6"/>
<ellipse cx="67.464" cy="122.254" rx="1.30631" ry="1.72075" fill="url(#paint15_linear)"/>
<ellipse cx="70.8603" cy="122.254" rx="1.30631" ry="1.72075" fill="#763DC6"/>
<ellipse cx="70.8603" cy="122.254" rx="1.30631" ry="1.72075" fill="url(#paint16_linear)"/>
<ellipse cx="74.2567" cy="122.254" rx="1.30631" ry="1.72075" fill="#763DC6"/>
<ellipse cx="74.2567" cy="122.254" rx="1.30631" ry="1.72075" fill="url(#paint17_linear)"/>
<ellipse cx="77.6532" cy="122.254" rx="1.30631" ry="1.72075" fill="#763DC6"/>
<ellipse cx="77.6532" cy="122.254" rx="1.30631" ry="1.72075" fill="url(#paint18_linear)"/>
<ellipse cx="60.6712" cy="126.072" rx="1.30631" ry="1.72073" fill="#763DC6"/>
<ellipse cx="60.6712" cy="126.072" rx="1.30631" ry="1.72073" fill="url(#paint19_linear)"/>
<ellipse cx="64.0675" cy="126.072" rx="1.30631" ry="1.72073" fill="#763DC6"/>
<ellipse cx="64.0675" cy="126.072" rx="1.30631" ry="1.72073" fill="url(#paint20_linear)"/>
<ellipse cx="67.464" cy="126.072" rx="1.30631" ry="1.72073" fill="#763DC6"/>
<ellipse cx="67.464" cy="126.072" rx="1.30631" ry="1.72073" fill="url(#paint21_linear)"/>
<ellipse cx="70.8603" cy="126.072" rx="1.30631" ry="1.72073" fill="#763DC6"/>
<ellipse cx="70.8603" cy="126.072" rx="1.30631" ry="1.72073" fill="url(#paint22_linear)"/>
<ellipse cx="74.2567" cy="126.072" rx="1.30631" ry="1.72073" fill="#763DC6"/>
<ellipse cx="74.2567" cy="126.072" rx="1.30631" ry="1.72073" fill="url(#paint23_linear)"/>
<ellipse cx="77.6532" cy="126.072" rx="1.30631" ry="1.72073" fill="#763DC6"/>
<ellipse cx="77.6532" cy="126.072" rx="1.30631" ry="1.72073" fill="url(#paint24_linear)"/>
<ellipse cx="60.6712" cy="130.202" rx="1.30631" ry="1.72074" fill="#763DC6"/>
<ellipse cx="60.6712" cy="130.202" rx="1.30631" ry="1.72074" fill="url(#paint25_linear)"/>
<ellipse cx="64.0675" cy="130.202" rx="1.30631" ry="1.72074" fill="#763DC6"/>
<ellipse cx="64.0675" cy="130.202" rx="1.30631" ry="1.72074" fill="url(#paint26_linear)"/>
<ellipse cx="67.464" cy="130.202" rx="1.30631" ry="1.72074" fill="#763DC6"/>
<ellipse cx="67.464" cy="130.202" rx="1.30631" ry="1.72074" fill="url(#paint27_linear)"/>
<ellipse cx="70.8603" cy="130.202" rx="1.30631" ry="1.72074" fill="#763DC6"/>
<ellipse cx="70.8603" cy="130.202" rx="1.30631" ry="1.72074" fill="url(#paint28_linear)"/>
<ellipse cx="74.2567" cy="130.202" rx="1.30631" ry="1.72074" fill="#763DC6"/>
<ellipse cx="74.2567" cy="130.202" rx="1.30631" ry="1.72074" fill="url(#paint29_linear)"/>
<ellipse cx="77.6532" cy="130.202" rx="1.30631" ry="1.72074" fill="#763DC6"/>
<ellipse cx="77.6532" cy="130.202" rx="1.30631" ry="1.72074" fill="url(#paint30_linear)"/>
<ellipse cx="60.6712" cy="134.02" rx="1.30631" ry="1.72074" fill="#763DC6"/>
<ellipse cx="60.6712" cy="134.02" rx="1.30631" ry="1.72074" fill="url(#paint31_linear)"/>
<ellipse cx="64.0675" cy="134.02" rx="1.30631" ry="1.72074" fill="#763DC6"/>
<ellipse cx="64.0675" cy="134.02" rx="1.30631" ry="1.72074" fill="url(#paint32_linear)"/>
<ellipse cx="67.464" cy="134.02" rx="1.30631" ry="1.72074" fill="#763DC6"/>
<ellipse cx="67.464" cy="134.02" rx="1.30631" ry="1.72074" fill="url(#paint33_linear)"/>
<ellipse cx="70.8603" cy="134.02" rx="1.30631" ry="1.72074" fill="#763DC6"/>
<ellipse cx="70.8603" cy="134.02" rx="1.30631" ry="1.72074" fill="url(#paint34_linear)"/>
<ellipse cx="74.2567" cy="134.02" rx="1.30631" ry="1.72074" fill="#763DC6"/>
<ellipse cx="74.2567" cy="134.02" rx="1.30631" ry="1.72074" fill="url(#paint35_linear)"/>
<ellipse cx="77.6532" cy="134.02" rx="1.30631" ry="1.72074" fill="#763DC6"/>
<ellipse cx="77.6532" cy="134.02" rx="1.30631" ry="1.72074" fill="url(#paint36_linear)"/>
<ellipse cx="60.6712" cy="138.149" rx="1.30631" ry="1.72074" fill="#763DC6"/>
<ellipse cx="60.6712" cy="138.149" rx="1.30631" ry="1.72074" fill="url(#paint37_linear)"/>
<ellipse cx="64.0675" cy="138.149" rx="1.30631" ry="1.72074" fill="#763DC6"/>
<ellipse cx="64.0675" cy="138.149" rx="1.30631" ry="1.72074" fill="url(#paint38_linear)"/>
<ellipse cx="67.464" cy="138.149" rx="1.30631" ry="1.72074" fill="#763DC6"/>
<ellipse cx="67.464" cy="138.149" rx="1.30631" ry="1.72074" fill="url(#paint39_linear)"/>
<ellipse cx="70.8603" cy="138.149" rx="1.30631" ry="1.72074" fill="#763DC6"/>
<ellipse cx="70.8603" cy="138.149" rx="1.30631" ry="1.72074" fill="url(#paint40_linear)"/>
<ellipse cx="74.2567" cy="138.149" rx="1.30631" ry="1.72074" fill="#763DC6"/>
<ellipse cx="74.2567" cy="138.149" rx="1.30631" ry="1.72074" fill="url(#paint41_linear)"/>
<ellipse cx="77.6532" cy="138.149" rx="1.30631" ry="1.72074" fill="#763DC6"/>
<ellipse cx="77.6532" cy="138.149" rx="1.30631" ry="1.72074" fill="url(#paint42_linear)"/>
<ellipse cx="60.6712" cy="142.149" rx="1.30631" ry="1.72074" fill="#763DC6"/>
<ellipse cx="60.6712" cy="142.149" rx="1.30631" ry="1.72074" fill="url(#paint43_linear)"/>
<ellipse cx="64.0675" cy="142.149" rx="1.30631" ry="1.72074" fill="#763DC6"/>
<ellipse cx="64.0675" cy="142.149" rx="1.30631" ry="1.72074" fill="url(#paint44_linear)"/>
<ellipse cx="67.464" cy="142.149" rx="1.30631" ry="1.72074" fill="#763DC6"/>
<ellipse cx="67.464" cy="142.149" rx="1.30631" ry="1.72074" fill="url(#paint45_linear)"/>
<ellipse cx="70.8603" cy="142.149" rx="1.30631" ry="1.72074" fill="#763DC6"/>
<ellipse cx="70.8603" cy="142.149" rx="1.30631" ry="1.72074" fill="url(#paint46_linear)"/>
<ellipse cx="74.2567" cy="142.149" rx="1.30631" ry="1.72074" fill="#763DC6"/>
<ellipse cx="74.2567" cy="142.149" rx="1.30631" ry="1.72074" fill="url(#paint47_linear)"/>
<ellipse cx="77.6532" cy="142.149" rx="1.30631" ry="1.72074" fill="#763DC6"/>
<ellipse cx="77.6532" cy="142.149" rx="1.30631" ry="1.72074" fill="url(#paint48_linear)"/>
<path d="M106 27L99 23V61L106 56.5V27Z" fill="url(#paint49_linear)"/>
</g>
<defs>
<linearGradient id="paint0_linear" x1="76.5" y1="0" x2="76.5" y2="153" gradientUnits="userSpaceOnUse">
<stop stop-color="#6094EA"/>
<stop offset="1" stop-color="#F02FC2"/>
</linearGradient>
<linearGradient id="paint1_linear" x1="60.6712" y1="112.585" x2="60.6712" y2="116.027" gradientUnits="userSpaceOnUse">
<stop stop-color="#763DC6"/>
<stop offset="0.5625" stop-color="#A551E0"/>
<stop offset="1" stop-color="#C960F5"/>
</linearGradient>
<linearGradient id="paint2_linear" x1="64.0675" y1="112.585" x2="64.0675" y2="116.027" gradientUnits="userSpaceOnUse">
<stop stop-color="#763DC6"/>
<stop offset="0.5625" stop-color="#A551E0"/>
<stop offset="1" stop-color="#C960F5"/>
</linearGradient>
<linearGradient id="paint3_linear" x1="67.464" y1="112.585" x2="67.464" y2="116.027" gradientUnits="userSpaceOnUse">
<stop stop-color="#763DC6"/>
<stop offset="0.5625" stop-color="#A551E0"/>
<stop offset="1" stop-color="#C960F5"/>
</linearGradient>
<linearGradient id="paint4_linear" x1="70.8603" y1="112.585" x2="70.8603" y2="116.027" gradientUnits="userSpaceOnUse">
<stop stop-color="#763DC6"/>
<stop offset="0.5625" stop-color="#A551E0"/>
<stop offset="1" stop-color="#C960F5"/>
</linearGradient>
<linearGradient id="paint5_linear" x1="74.2567" y1="112.585" x2="74.2567" y2="116.027" gradientUnits="userSpaceOnUse">
<stop stop-color="#763DC6"/>
<stop offset="0.5625" stop-color="#A551E0"/>
<stop offset="1" stop-color="#C960F5"/>
</linearGradient>
<linearGradient id="paint6_linear" x1="77.6532" y1="112.585" x2="77.6532" y2="116.027" gradientUnits="userSpaceOnUse">
<stop stop-color="#763DC6"/>
<stop offset="0.5625" stop-color="#A551E0"/>
<stop offset="1" stop-color="#C960F5"/>
</linearGradient>
<linearGradient id="paint7_linear" x1="60.6712" y1="116.403" x2="60.6712" y2="119.845" gradientUnits="userSpaceOnUse">
<stop stop-color="#763DC6"/>
<stop offset="0.5625" stop-color="#A551E0"/>
<stop offset="1" stop-color="#C960F5"/>
</linearGradient>
<linearGradient id="paint8_linear" x1="64.0675" y1="116.403" x2="64.0675" y2="119.845" gradientUnits="userSpaceOnUse">
<stop stop-color="#763DC6"/>
<stop offset="0.5625" stop-color="#A551E0"/>
<stop offset="1" stop-color="#C960F5"/>
</linearGradient>
<linearGradient id="paint9_linear" x1="67.464" y1="116.403" x2="67.464" y2="119.845" gradientUnits="userSpaceOnUse">
<stop stop-color="#763DC6"/>
<stop offset="0.5625" stop-color="#A551E0"/>
<stop offset="1" stop-color="#C960F5"/>
</linearGradient>
<linearGradient id="paint10_linear" x1="70.8603" y1="116.403" x2="70.8603" y2="119.845" gradientUnits="userSpaceOnUse">
<stop stop-color="#763DC6"/>
<stop offset="0.5625" stop-color="#A551E0"/>
<stop offset="1" stop-color="#C960F5"/>
</linearGradient>
<linearGradient id="paint11_linear" x1="74.2567" y1="116.403" x2="74.2567" y2="119.845" gradientUnits="userSpaceOnUse">
<stop stop-color="#763DC6"/>
<stop offset="0.5625" stop-color="#A551E0"/>
<stop offset="1" stop-color="#C960F5"/>
</linearGradient>
<linearGradient id="paint12_linear" x1="77.6532" y1="116.403" x2="77.6532" y2="119.845" gradientUnits="userSpaceOnUse">
<stop stop-color="#763DC6"/>
<stop offset="0.5625" stop-color="#A551E0"/>
<stop offset="1" stop-color="#C960F5"/>
</linearGradient>
<linearGradient id="paint13_linear" x1="60.6712" y1="120.533" x2="60.6712" y2="123.974" gradientUnits="userSpaceOnUse">
<stop stop-color="#763DC6"/>
<stop offset="0.5625" stop-color="#A551E0"/>
<stop offset="1" stop-color="#C960F5"/>
</linearGradient>
<linearGradient id="paint14_linear" x1="64.0675" y1="120.533" x2="64.0675" y2="123.974" gradientUnits="userSpaceOnUse">
<stop stop-color="#763DC6"/>
<stop offset="0.5625" stop-color="#A551E0"/>
<stop offset="1" stop-color="#C960F5"/>
</linearGradient>
<linearGradient id="paint15_linear" x1="67.464" y1="120.533" x2="67.464" y2="123.974" gradientUnits="userSpaceOnUse">
<stop stop-color="#763DC6"/>
<stop offset="0.5625" stop-color="#A551E0"/>
<stop offset="1" stop-color="#C960F5"/>
</linearGradient>
<linearGradient id="paint16_linear" x1="70.8603" y1="120.533" x2="70.8603" y2="123.974" gradientUnits="userSpaceOnUse">
<stop stop-color="#763DC6"/>
<stop offset="0.5625" stop-color="#A551E0"/>
<stop offset="1" stop-color="#C960F5"/>
</linearGradient>
<linearGradient id="paint17_linear" x1="74.2567" y1="120.533" x2="74.2567" y2="123.974" gradientUnits="userSpaceOnUse">
<stop stop-color="#763DC6"/>
<stop offset="0.5625" stop-color="#A551E0"/>
<stop offset="1" stop-color="#C960F5"/>
</linearGradient>
<linearGradient id="paint18_linear" x1="77.6532" y1="120.533" x2="77.6532" y2="123.974" gradientUnits="userSpaceOnUse">
<stop stop-color="#763DC6"/>
<stop offset="0.5625" stop-color="#A551E0"/>
<stop offset="1" stop-color="#C960F5"/>
</linearGradient>
<linearGradient id="paint19_linear" x1="60.6712" y1="124.351" x2="60.6712" y2="127.793" gradientUnits="userSpaceOnUse">
<stop stop-color="#763DC6"/>
<stop offset="0.5625" stop-color="#A551E0"/>
<stop offset="1" stop-color="#C960F5"/>
</linearGradient>
<linearGradient id="paint20_linear" x1="64.0675" y1="124.351" x2="64.0675" y2="127.793" gradientUnits="userSpaceOnUse">
<stop stop-color="#763DC6"/>
<stop offset="0.5625" stop-color="#A551E0"/>
<stop offset="1" stop-color="#C960F5"/>
</linearGradient>
<linearGradient id="paint21_linear" x1="67.464" y1="124.351" x2="67.464" y2="127.793" gradientUnits="userSpaceOnUse">
<stop stop-color="#763DC6"/>
<stop offset="0.5625" stop-color="#A551E0"/>
<stop offset="1" stop-color="#C960F5"/>
</linearGradient>
<linearGradient id="paint22_linear" x1="70.8603" y1="124.351" x2="70.8603" y2="127.793" gradientUnits="userSpaceOnUse">
<stop stop-color="#763DC6"/>
<stop offset="0.5625" stop-color="#A551E0"/>
<stop offset="1" stop-color="#C960F5"/>
</linearGradient>
<linearGradient id="paint23_linear" x1="74.2567" y1="124.351" x2="74.2567" y2="127.793" gradientUnits="userSpaceOnUse">
<stop stop-color="#763DC6"/>
<stop offset="0.5625" stop-color="#A551E0"/>
<stop offset="1" stop-color="#C960F5"/>
</linearGradient>
<linearGradient id="paint24_linear" x1="77.6532" y1="124.351" x2="77.6532" y2="127.793" gradientUnits="userSpaceOnUse">
<stop stop-color="#763DC6"/>
<stop offset="0.5625" stop-color="#A551E0"/>
<stop offset="1" stop-color="#C960F5"/>
</linearGradient>
<linearGradient id="paint25_linear" x1="60.6712" y1="128.481" x2="60.6712" y2="131.922" gradientUnits="userSpaceOnUse">
<stop stop-color="#763DC6"/>
<stop offset="0.5625" stop-color="#A551E0"/>
<stop offset="1" stop-color="#C960F5"/>
</linearGradient>
<linearGradient id="paint26_linear" x1="64.0675" y1="128.481" x2="64.0675" y2="131.922" gradientUnits="userSpaceOnUse">
<stop stop-color="#763DC6"/>
<stop offset="0.5625" stop-color="#A551E0"/>
<stop offset="1" stop-color="#C960F5"/>
</linearGradient>
<linearGradient id="paint27_linear" x1="67.464" y1="128.481" x2="67.464" y2="131.922" gradientUnits="userSpaceOnUse">
<stop stop-color="#763DC6"/>
<stop offset="0.5625" stop-color="#A551E0"/>
<stop offset="1" stop-color="#C960F5"/>
</linearGradient>
<linearGradient id="paint28_linear" x1="70.8603" y1="128.481" x2="70.8603" y2="131.922" gradientUnits="userSpaceOnUse">
<stop stop-color="#763DC6"/>
<stop offset="0.5625" stop-color="#A551E0"/>
<stop offset="1" stop-color="#C960F5"/>
</linearGradient>
<linearGradient id="paint29_linear" x1="74.2567" y1="128.481" x2="74.2567" y2="131.922" gradientUnits="userSpaceOnUse">
<stop stop-color="#763DC6"/>
<stop offset="0.5625" stop-color="#A551E0"/>
<stop offset="1" stop-color="#C960F5"/>
</linearGradient>
<linearGradient id="paint30_linear" x1="77.6532" y1="128.481" x2="77.6532" y2="131.922" gradientUnits="userSpaceOnUse">
<stop stop-color="#763DC6"/>
<stop offset="0.5625" stop-color="#A551E0"/>
<stop offset="1" stop-color="#C960F5"/>
</linearGradient>
<linearGradient id="paint31_linear" x1="60.6712" y1="132.299" x2="60.6712" y2="135.74" gradientUnits="userSpaceOnUse">
<stop stop-color="#763DC6"/>
<stop offset="0.5625" stop-color="#A551E0"/>
<stop offset="1" stop-color="#C960F5"/>
</linearGradient>
<linearGradient id="paint32_linear" x1="64.0675" y1="132.299" x2="64.0675" y2="135.74" gradientUnits="userSpaceOnUse">
<stop stop-color="#763DC6"/>
<stop offset="0.5625" stop-color="#A551E0"/>
<stop offset="1" stop-color="#C960F5"/>
</linearGradient>
<linearGradient id="paint33_linear" x1="67.464" y1="132.299" x2="67.464" y2="135.74" gradientUnits="userSpaceOnUse">
<stop stop-color="#763DC6"/>
<stop offset="0.5625" stop-color="#A551E0"/>
<stop offset="1" stop-color="#C960F5"/>
</linearGradient>
<linearGradient id="paint34_linear" x1="70.8603" y1="132.299" x2="70.8603" y2="135.74" gradientUnits="userSpaceOnUse">
<stop stop-color="#763DC6"/>
<stop offset="0.5625" stop-color="#A551E0"/>
<stop offset="1" stop-color="#C960F5"/>
</linearGradient>
<linearGradient id="paint35_linear" x1="74.2567" y1="132.299" x2="74.2567" y2="135.74" gradientUnits="userSpaceOnUse">
<stop stop-color="#763DC6"/>
<stop offset="0.5625" stop-color="#A551E0"/>
<stop offset="1" stop-color="#C960F5"/>
</linearGradient>
<linearGradient id="paint36_linear" x1="77.6532" y1="132.299" x2="77.6532" y2="135.74" gradientUnits="userSpaceOnUse">
<stop stop-color="#763DC6"/>
<stop offset="0.5625" stop-color="#A551E0"/>
<stop offset="1" stop-color="#C960F5"/>
</linearGradient>
<linearGradient id="paint37_linear" x1="60.6712" y1="136.429" x2="60.6712" y2="139.87" gradientUnits="userSpaceOnUse">
<stop stop-color="#763DC6"/>
<stop offset="0.5625" stop-color="#A551E0"/>
<stop offset="1" stop-color="#C960F5"/>
</linearGradient>
<linearGradient id="paint38_linear" x1="64.0675" y1="136.429" x2="64.0675" y2="139.87" gradientUnits="userSpaceOnUse">
<stop stop-color="#763DC6"/>
<stop offset="0.5625" stop-color="#A551E0"/>
<stop offset="1" stop-color="#C960F5"/>
</linearGradient>
<linearGradient id="paint39_linear" x1="67.464" y1="136.429" x2="67.464" y2="139.87" gradientUnits="userSpaceOnUse">
<stop stop-color="#763DC6"/>
<stop offset="0.5625" stop-color="#A551E0"/>
<stop offset="1" stop-color="#C960F5"/>
</linearGradient>
<linearGradient id="paint40_linear" x1="70.8603" y1="136.429" x2="70.8603" y2="139.87" gradientUnits="userSpaceOnUse">
<stop stop-color="#763DC6"/>
<stop offset="0.5625" stop-color="#A551E0"/>
<stop offset="1" stop-color="#C960F5"/>
</linearGradient>
<linearGradient id="paint41_linear" x1="74.2567" y1="136.429" x2="74.2567" y2="139.87" gradientUnits="userSpaceOnUse">
<stop stop-color="#763DC6"/>
<stop offset="0.5625" stop-color="#A551E0"/>
<stop offset="1" stop-color="#C960F5"/>
</linearGradient>
<linearGradient id="paint42_linear" x1="77.6532" y1="136.429" x2="77.6532" y2="139.87" gradientUnits="userSpaceOnUse">
<stop stop-color="#763DC6"/>
<stop offset="0.5625" stop-color="#A551E0"/>
<stop offset="1" stop-color="#C960F5"/>
</linearGradient>
<linearGradient id="paint43_linear" x1="60.6712" y1="140.429" x2="60.6712" y2="143.87" gradientUnits="userSpaceOnUse">
<stop stop-color="#763DC6"/>
<stop offset="0.5625" stop-color="#A551E0"/>
<stop offset="1" stop-color="#C960F5"/>
</linearGradient>
<linearGradient id="paint44_linear" x1="64.0675" y1="140.429" x2="64.0675" y2="143.87" gradientUnits="userSpaceOnUse">
<stop stop-color="#763DC6"/>
<stop offset="0.5625" stop-color="#A551E0"/>
<stop offset="1" stop-color="#C960F5"/>
</linearGradient>
<linearGradient id="paint45_linear" x1="67.464" y1="140.429" x2="67.464" y2="143.87" gradientUnits="userSpaceOnUse">
<stop stop-color="#763DC6"/>
<stop offset="0.5625" stop-color="#A551E0"/>
<stop offset="1" stop-color="#C960F5"/>
</linearGradient>
<linearGradient id="paint46_linear" x1="70.8603" y1="140.429" x2="70.8603" y2="143.87" gradientUnits="userSpaceOnUse">
<stop stop-color="#763DC6"/>
<stop offset="0.5625" stop-color="#A551E0"/>
<stop offset="1" stop-color="#C960F5"/>
</linearGradient>
<linearGradient id="paint47_linear" x1="74.2567" y1="140.429" x2="74.2567" y2="143.87" gradientUnits="userSpaceOnUse">
<stop stop-color="#763DC6"/>
<stop offset="0.5625" stop-color="#A551E0"/>
<stop offset="1" stop-color="#C960F5"/>
</linearGradient>
<linearGradient id="paint48_linear" x1="77.6532" y1="140.429" x2="77.6532" y2="143.87" gradientUnits="userSpaceOnUse">
<stop stop-color="#763DC6"/>
<stop offset="0.5625" stop-color="#A551E0"/>
<stop offset="1" stop-color="#C960F5"/>
</linearGradient>
<linearGradient id="paint49_linear" x1="102.5" y1="23" x2="102.5" y2="61" gradientUnits="userSpaceOnUse">
<stop stop-color="#763DC6" stop-opacity="0"/>
<stop offset="0.604167" stop-color="#C960F5"/>
<stop offset="1" stop-color="#C960F5"/>
</linearGradient>
</defs>
</svg>
