<svg xmlns="http://www.w3.org/2000/svg" width="153" height="153" fill="none" viewBox="0 0 153 153"><circle cx="76.5" cy="76.5" r="76.5" fill="#F02FC2"/><circle cx="76.5" cy="76.5" r="76.5" fill="url(#paint0_linear)"/><path fill="#FFEC3E" d="M99.0766 23H48L48.1306 60.6709H58.8423V141.735L61.9775 144H77L79.6126 141.735V60.6709H99.0766L106 56.4985V27.1724L99.0766 23Z"/><mask id="mask0" width="58" height="121" x="48" y="23" mask-type="alpha" maskUnits="userSpaceOnUse"><path fill="#FFEC3E" d="M99.0766 23H48L48.1306 60.6709H58.8423V141.735L61.9775 144H77L79.6126 141.735V60.6709H99.0766L106 56.4985V27.1724L99.0766 23Z"/></mask><g mask="url(#mask0)"><ellipse cx="60.671" cy="114.306" fill="#763DC6" rx="1.306" ry="1.721"/><ellipse cx="60.671" cy="114.306" fill="url(#paint1_linear)" rx="1.306" ry="1.721"/><ellipse cx="64.067" cy="114.306" fill="#763DC6" rx="1.306" ry="1.721"/><ellipse cx="64.067" cy="114.306" fill="url(#paint2_linear)" rx="1.306" ry="1.721"/><ellipse cx="67.464" cy="114.306" fill="#763DC6" rx="1.306" ry="1.721"/><ellipse cx="67.464" cy="114.306" fill="url(#paint3_linear)" rx="1.306" ry="1.721"/><ellipse cx="70.86" cy="114.306" fill="#763DC6" rx="1.306" ry="1.721"/><ellipse cx="70.86" cy="114.306" fill="url(#paint4_linear)" rx="1.306" ry="1.721"/><ellipse cx="74.257" cy="114.306" fill="#763DC6" rx="1.306" ry="1.721"/><ellipse cx="74.257" cy="114.306" fill="url(#paint5_linear)" rx="1.306" ry="1.721"/><ellipse cx="77.653" cy="114.306" fill="#763DC6" rx="1.306" ry="1.721"/><ellipse cx="77.653" cy="114.306" fill="url(#paint6_linear)" rx="1.306" ry="1.721"/><ellipse cx="60.671" cy="118.124" fill="#763DC6" rx="1.306" ry="1.721"/><ellipse cx="60.671" cy="118.124" fill="url(#paint7_linear)" rx="1.306" ry="1.721"/><ellipse cx="64.067" cy="118.124" fill="#763DC6" rx="1.306" ry="1.721"/><ellipse cx="64.067" cy="118.124" fill="url(#paint8_linear)" rx="1.306" ry="1.721"/><ellipse cx="67.464" cy="118.124" fill="#763DC6" rx="1.306" ry="1.721"/><ellipse cx="67.464" cy="118.124" fill="url(#paint9_linear)" rx="1.306" ry="1.721"/><ellipse cx="70.86" cy="118.124" fill="#763DC6" rx="1.306" ry="1.721"/><ellipse cx="70.86" cy="118.124" fill="url(#paint10_linear)" rx="1.306" ry="1.721"/><ellipse cx="74.257" cy="118.124" fill="#763DC6" rx="1.306" ry="1.721"/><ellipse cx="74.257" cy="118.124" fill="url(#paint11_linear)" rx="1.306" ry="1.721"/><ellipse cx="77.653" cy="118.124" fill="#763DC6" rx="1.306" ry="1.721"/><ellipse cx="77.653" cy="118.124" fill="url(#paint12_linear)" rx="1.306" ry="1.721"/><ellipse cx="60.671" cy="122.254" fill="#763DC6" rx="1.306" ry="1.721"/><ellipse cx="60.671" cy="122.254" fill="url(#paint13_linear)" rx="1.306" ry="1.721"/><ellipse cx="64.067" cy="122.254" fill="#763DC6" rx="1.306" ry="1.721"/><ellipse cx="64.067" cy="122.254" fill="url(#paint14_linear)" rx="1.306" ry="1.721"/><ellipse cx="67.464" cy="122.254" fill="#763DC6" rx="1.306" ry="1.721"/><ellipse cx="67.464" cy="122.254" fill="url(#paint15_linear)" rx="1.306" ry="1.721"/><ellipse cx="70.86" cy="122.254" fill="#763DC6" rx="1.306" ry="1.721"/><ellipse cx="70.86" cy="122.254" fill="url(#paint16_linear)" rx="1.306" ry="1.721"/><ellipse cx="74.257" cy="122.254" fill="#763DC6" rx="1.306" ry="1.721"/><ellipse cx="74.257" cy="122.254" fill="url(#paint17_linear)" rx="1.306" ry="1.721"/><ellipse cx="77.653" cy="122.254" fill="#763DC6" rx="1.306" ry="1.721"/><ellipse cx="77.653" cy="122.254" fill="url(#paint18_linear)" rx="1.306" ry="1.721"/><ellipse cx="60.671" cy="126.072" fill="#763DC6" rx="1.306" ry="1.721"/><ellipse cx="60.671" cy="126.072" fill="url(#paint19_linear)" rx="1.306" ry="1.721"/><ellipse cx="64.067" cy="126.072" fill="#763DC6" rx="1.306" ry="1.721"/><ellipse cx="64.067" cy="126.072" fill="url(#paint20_linear)" rx="1.306" ry="1.721"/><ellipse cx="67.464" cy="126.072" fill="#763DC6" rx="1.306" ry="1.721"/><ellipse cx="67.464" cy="126.072" fill="url(#paint21_linear)" rx="1.306" ry="1.721"/><ellipse cx="70.86" cy="126.072" fill="#763DC6" rx="1.306" ry="1.721"/><ellipse cx="70.86" cy="126.072" fill="url(#paint22_linear)" rx="1.306" ry="1.721"/><ellipse cx="74.257" cy="126.072" fill="#763DC6" rx="1.306" ry="1.721"/><ellipse cx="74.257" cy="126.072" fill="url(#paint23_linear)" rx="1.306" ry="1.721"/><ellipse cx="77.653" cy="126.072" fill="#763DC6" rx="1.306" ry="1.721"/><ellipse cx="77.653" cy="126.072" fill="url(#paint24_linear)" rx="1.306" ry="1.721"/><ellipse cx="60.671" cy="130.202" fill="#763DC6" rx="1.306" ry="1.721"/><ellipse cx="60.671" cy="130.202" fill="url(#paint25_linear)" rx="1.306" ry="1.721"/><ellipse cx="64.067" cy="130.202" fill="#763DC6" rx="1.306" ry="1.721"/><ellipse cx="64.067" cy="130.202" fill="url(#paint26_linear)" rx="1.306" ry="1.721"/><ellipse cx="67.464" cy="130.202" fill="#763DC6" rx="1.306" ry="1.721"/><ellipse cx="67.464" cy="130.202" fill="url(#paint27_linear)" rx="1.306" ry="1.721"/><ellipse cx="70.86" cy="130.202" fill="#763DC6" rx="1.306" ry="1.721"/><ellipse cx="70.86" cy="130.202" fill="url(#paint28_linear)" rx="1.306" ry="1.721"/><ellipse cx="74.257" cy="130.202" fill="#763DC6" rx="1.306" ry="1.721"/><ellipse cx="74.257" cy="130.202" fill="url(#paint29_linear)" rx="1.306" ry="1.721"/><ellipse cx="77.653" cy="130.202" fill="#763DC6" rx="1.306" ry="1.721"/><ellipse cx="77.653" cy="130.202" fill="url(#paint30_linear)" rx="1.306" ry="1.721"/><ellipse cx="60.671" cy="134.02" fill="#763DC6" rx="1.306" ry="1.721"/><ellipse cx="60.671" cy="134.02" fill="url(#paint31_linear)" rx="1.306" ry="1.721"/><ellipse cx="64.067" cy="134.02" fill="#763DC6" rx="1.306" ry="1.721"/><ellipse cx="64.067" cy="134.02" fill="url(#paint32_linear)" rx="1.306" ry="1.721"/><ellipse cx="67.464" cy="134.02" fill="#763DC6" rx="1.306" ry="1.721"/><ellipse cx="67.464" cy="134.02" fill="url(#paint33_linear)" rx="1.306" ry="1.721"/><ellipse cx="70.86" cy="134.02" fill="#763DC6" rx="1.306" ry="1.721"/><ellipse cx="70.86" cy="134.02" fill="url(#paint34_linear)" rx="1.306" ry="1.721"/><ellipse cx="74.257" cy="134.02" fill="#763DC6" rx="1.306" ry="1.721"/><ellipse cx="74.257" cy="134.02" fill="url(#paint35_linear)" rx="1.306" ry="1.721"/><ellipse cx="77.653" cy="134.02" fill="#763DC6" rx="1.306" ry="1.721"/><ellipse cx="77.653" cy="134.02" fill="url(#paint36_linear)" rx="1.306" ry="1.721"/><ellipse cx="60.671" cy="138.149" fill="#763DC6" rx="1.306" ry="1.721"/><ellipse cx="60.671" cy="138.149" fill="url(#paint37_linear)" rx="1.306" ry="1.721"/><ellipse cx="64.067" cy="138.149" fill="#763DC6" rx="1.306" ry="1.721"/><ellipse cx="64.067" cy="138.149" fill="url(#paint38_linear)" rx="1.306" ry="1.721"/><ellipse cx="67.464" cy="138.149" fill="#763DC6" rx="1.306" ry="1.721"/><ellipse cx="67.464" cy="138.149" fill="url(#paint39_linear)" rx="1.306" ry="1.721"/><ellipse cx="70.86" cy="138.149" fill="#763DC6" rx="1.306" ry="1.721"/><ellipse cx="70.86" cy="138.149" fill="url(#paint40_linear)" rx="1.306" ry="1.721"/><ellipse cx="74.257" cy="138.149" fill="#763DC6" rx="1.306" ry="1.721"/><ellipse cx="74.257" cy="138.149" fill="url(#paint41_linear)" rx="1.306" ry="1.721"/><ellipse cx="77.653" cy="138.149" fill="#763DC6" rx="1.306" ry="1.721"/><ellipse cx="77.653" cy="138.149" fill="url(#paint42_linear)" rx="1.306" ry="1.721"/><ellipse cx="60.671" cy="142.149" fill="#763DC6" rx="1.306" ry="1.721"/><ellipse cx="60.671" cy="142.149" fill="url(#paint43_linear)" rx="1.306" ry="1.721"/><ellipse cx="64.067" cy="142.149" fill="#763DC6" rx="1.306" ry="1.721"/><ellipse cx="64.067" cy="142.149" fill="url(#paint44_linear)" rx="1.306" ry="1.721"/><ellipse cx="67.464" cy="142.149" fill="#763DC6" rx="1.306" ry="1.721"/><ellipse cx="67.464" cy="142.149" fill="url(#paint45_linear)" rx="1.306" ry="1.721"/><ellipse cx="70.86" cy="142.149" fill="#763DC6" rx="1.306" ry="1.721"/><ellipse cx="70.86" cy="142.149" fill="url(#paint46_linear)" rx="1.306" ry="1.721"/><ellipse cx="74.257" cy="142.149" fill="#763DC6" rx="1.306" ry="1.721"/><ellipse cx="74.257" cy="142.149" fill="url(#paint47_linear)" rx="1.306" ry="1.721"/><ellipse cx="77.653" cy="142.149" fill="#763DC6" rx="1.306" ry="1.721"/><ellipse cx="77.653" cy="142.149" fill="url(#paint48_linear)" rx="1.306" ry="1.721"/><path fill="url(#paint49_linear)" d="M106 27L99 23V61L106 56.5V27Z"/></g><defs><linearGradient id="paint0_linear" x1="76.5" x2="76.5" y1="0" y2="153" gradientUnits="userSpaceOnUse"><stop stop-color="#6094EA"/><stop offset="1" stop-color="#F02FC2"/></linearGradient><linearGradient id="paint1_linear" x1="60.671" x2="60.671" y1="112.585" y2="116.027" gradientUnits="userSpaceOnUse"><stop stop-color="#763DC6"/><stop offset=".563" stop-color="#A551E0"/><stop offset="1" stop-color="#C960F5"/></linearGradient><linearGradient id="paint2_linear" x1="64.067" x2="64.067" y1="112.585" y2="116.027" gradientUnits="userSpaceOnUse"><stop stop-color="#763DC6"/><stop offset=".563" stop-color="#A551E0"/><stop offset="1" stop-color="#C960F5"/></linearGradient><linearGradient id="paint3_linear" x1="67.464" x2="67.464" y1="112.585" y2="116.027" gradientUnits="userSpaceOnUse"><stop stop-color="#763DC6"/><stop offset=".563" stop-color="#A551E0"/><stop offset="1" stop-color="#C960F5"/></linearGradient><linearGradient id="paint4_linear" x1="70.86" x2="70.86" y1="112.585" y2="116.027" gradientUnits="userSpaceOnUse"><stop stop-color="#763DC6"/><stop offset=".563" stop-color="#A551E0"/><stop offset="1" stop-color="#C960F5"/></linearGradient><linearGradient id="paint5_linear" x1="74.257" x2="74.257" y1="112.585" y2="116.027" gradientUnits="userSpaceOnUse"><stop stop-color="#763DC6"/><stop offset=".563" stop-color="#A551E0"/><stop offset="1" stop-color="#C960F5"/></linearGradient><linearGradient id="paint6_linear" x1="77.653" x2="77.653" y1="112.585" y2="116.027" gradientUnits="userSpaceOnUse"><stop stop-color="#763DC6"/><stop offset=".563" stop-color="#A551E0"/><stop offset="1" stop-color="#C960F5"/></linearGradient><linearGradient id="paint7_linear" x1="60.671" x2="60.671" y1="116.403" y2="119.845" gradientUnits="userSpaceOnUse"><stop stop-color="#763DC6"/><stop offset=".563" stop-color="#A551E0"/><stop offset="1" stop-color="#C960F5"/></linearGradient><linearGradient id="paint8_linear" x1="64.067" x2="64.067" y1="116.403" y2="119.845" gradientUnits="userSpaceOnUse"><stop stop-color="#763DC6"/><stop offset=".563" stop-color="#A551E0"/><stop offset="1" stop-color="#C960F5"/></linearGradient><linearGradient id="paint9_linear" x1="67.464" x2="67.464" y1="116.403" y2="119.845" gradientUnits="userSpaceOnUse"><stop stop-color="#763DC6"/><stop offset=".563" stop-color="#A551E0"/><stop offset="1" stop-color="#C960F5"/></linearGradient><linearGradient id="paint10_linear" x1="70.86" x2="70.86" y1="116.403" y2="119.845" gradientUnits="userSpaceOnUse"><stop stop-color="#763DC6"/><stop offset=".563" stop-color="#A551E0"/><stop offset="1" stop-color="#C960F5"/></linearGradient><linearGradient id="paint11_linear" x1="74.257" x2="74.257" y1="116.403" y2="119.845" gradientUnits="userSpaceOnUse"><stop stop-color="#763DC6"/><stop offset=".563" stop-color="#A551E0"/><stop offset="1" stop-color="#C960F5"/></linearGradient><linearGradient id="paint12_linear" x1="77.653" x2="77.653" y1="116.403" y2="119.845" gradientUnits="userSpaceOnUse"><stop stop-color="#763DC6"/><stop offset=".563" stop-color="#A551E0"/><stop offset="1" stop-color="#C960F5"/></linearGradient><linearGradient id="paint13_linear" x1="60.671" x2="60.671" y1="120.533" y2="123.974" gradientUnits="userSpaceOnUse"><stop stop-color="#763DC6"/><stop offset=".563" stop-color="#A551E0"/><stop offset="1" stop-color="#C960F5"/></linearGradient><linearGradient id="paint14_linear" x1="64.067" x2="64.067" y1="120.533" y2="123.974" gradientUnits="userSpaceOnUse"><stop stop-color="#763DC6"/><stop offset=".563" stop-color="#A551E0"/><stop offset="1" stop-color="#C960F5"/></linearGradient><linearGradient id="paint15_linear" x1="67.464" x2="67.464" y1="120.533" y2="123.974" gradientUnits="userSpaceOnUse"><stop stop-color="#763DC6"/><stop offset=".563" stop-color="#A551E0"/><stop offset="1" stop-color="#C960F5"/></linearGradient><linearGradient id="paint16_linear" x1="70.86" x2="70.86" y1="120.533" y2="123.974" gradientUnits="userSpaceOnUse"><stop stop-color="#763DC6"/><stop offset=".563" stop-color="#A551E0"/><stop offset="1" stop-color="#C960F5"/></linearGradient><linearGradient id="paint17_linear" x1="74.257" x2="74.257" y1="120.533" y2="123.974" gradientUnits="userSpaceOnUse"><stop stop-color="#763DC6"/><stop offset=".563" stop-color="#A551E0"/><stop offset="1" stop-color="#C960F5"/></linearGradient><linearGradient id="paint18_linear" x1="77.653" x2="77.653" y1="120.533" y2="123.974" gradientUnits="userSpaceOnUse"><stop stop-color="#763DC6"/><stop offset=".563" stop-color="#A551E0"/><stop offset="1" stop-color="#C960F5"/></linearGradient><linearGradient id="paint19_linear" x1="60.671" x2="60.671" y1="124.351" y2="127.793" gradientUnits="userSpaceOnUse"><stop stop-color="#763DC6"/><stop offset=".563" stop-color="#A551E0"/><stop offset="1" stop-color="#C960F5"/></linearGradient><linearGradient id="paint20_linear" x1="64.067" x2="64.067" y1="124.351" y2="127.793" gradientUnits="userSpaceOnUse"><stop stop-color="#763DC6"/><stop offset=".563" stop-color="#A551E0"/><stop offset="1" stop-color="#C960F5"/></linearGradient><linearGradient id="paint21_linear" x1="67.464" x2="67.464" y1="124.351" y2="127.793" gradientUnits="userSpaceOnUse"><stop stop-color="#763DC6"/><stop offset=".563" stop-color="#A551E0"/><stop offset="1" stop-color="#C960F5"/></linearGradient><linearGradient id="paint22_linear" x1="70.86" x2="70.86" y1="124.351" y2="127.793" gradientUnits="userSpaceOnUse"><stop stop-color="#763DC6"/><stop offset=".563" stop-color="#A551E0"/><stop offset="1" stop-color="#C960F5"/></linearGradient><linearGradient id="paint23_linear" x1="74.257" x2="74.257" y1="124.351" y2="127.793" gradientUnits="userSpaceOnUse"><stop stop-color="#763DC6"/><stop offset=".563" stop-color="#A551E0"/><stop offset="1" stop-color="#C960F5"/></linearGradient><linearGradient id="paint24_linear" x1="77.653" x2="77.653" y1="124.351" y2="127.793" gradientUnits="userSpaceOnUse"><stop stop-color="#763DC6"/><stop offset=".563" stop-color="#A551E0"/><stop offset="1" stop-color="#C960F5"/></linearGradient><linearGradient id="paint25_linear" x1="60.671" x2="60.671" y1="128.481" y2="131.922" gradientUnits="userSpaceOnUse"><stop stop-color="#763DC6"/><stop offset=".563" stop-color="#A551E0"/><stop offset="1" stop-color="#C960F5"/></linearGradient><linearGradient id="paint26_linear" x1="64.067" x2="64.067" y1="128.481" y2="131.922" gradientUnits="userSpaceOnUse"><stop stop-color="#763DC6"/><stop offset=".563" stop-color="#A551E0"/><stop offset="1" stop-color="#C960F5"/></linearGradient><linearGradient id="paint27_linear" x1="67.464" x2="67.464" y1="128.481" y2="131.922" gradientUnits="userSpaceOnUse"><stop stop-color="#763DC6"/><stop offset=".563" stop-color="#A551E0"/><stop offset="1" stop-color="#C960F5"/></linearGradient><linearGradient id="paint28_linear" x1="70.86" x2="70.86" y1="128.481" y2="131.922" gradientUnits="userSpaceOnUse"><stop stop-color="#763DC6"/><stop offset=".563" stop-color="#A551E0"/><stop offset="1" stop-color="#C960F5"/></linearGradient><linearGradient id="paint29_linear" x1="74.257" x2="74.257" y1="128.481" y2="131.922" gradientUnits="userSpaceOnUse"><stop stop-color="#763DC6"/><stop offset=".563" stop-color="#A551E0"/><stop offset="1" stop-color="#C960F5"/></linearGradient><linearGradient id="paint30_linear" x1="77.653" x2="77.653" y1="128.481" y2="131.922" gradientUnits="userSpaceOnUse"><stop stop-color="#763DC6"/><stop offset=".563" stop-color="#A551E0"/><stop offset="1" stop-color="#C960F5"/></linearGradient><linearGradient id="paint31_linear" x1="60.671" x2="60.671" y1="132.299" y2="135.74" gradientUnits="userSpaceOnUse"><stop stop-color="#763DC6"/><stop offset=".563" stop-color="#A551E0"/><stop offset="1" stop-color="#C960F5"/></linearGradient><linearGradient id="paint32_linear" x1="64.067" x2="64.067" y1="132.299" y2="135.74" gradientUnits="userSpaceOnUse"><stop stop-color="#763DC6"/><stop offset=".563" stop-color="#A551E0"/><stop offset="1" stop-color="#C960F5"/></linearGradient><linearGradient id="paint33_linear" x1="67.464" x2="67.464" y1="132.299" y2="135.74" gradientUnits="userSpaceOnUse"><stop stop-color="#763DC6"/><stop offset=".563" stop-color="#A551E0"/><stop offset="1" stop-color="#C960F5"/></linearGradient><linearGradient id="paint34_linear" x1="70.86" x2="70.86" y1="132.299" y2="135.74" gradientUnits="userSpaceOnUse"><stop stop-color="#763DC6"/><stop offset=".563" stop-color="#A551E0"/><stop offset="1" stop-color="#C960F5"/></linearGradient><linearGradient id="paint35_linear" x1="74.257" x2="74.257" y1="132.299" y2="135.74" gradientUnits="userSpaceOnUse"><stop stop-color="#763DC6"/><stop offset=".563" stop-color="#A551E0"/><stop offset="1" stop-color="#C960F5"/></linearGradient><linearGradient id="paint36_linear" x1="77.653" x2="77.653" y1="132.299" y2="135.74" gradientUnits="userSpaceOnUse"><stop stop-color="#763DC6"/><stop offset=".563" stop-color="#A551E0"/><stop offset="1" stop-color="#C960F5"/></linearGradient><linearGradient id="paint37_linear" x1="60.671" x2="60.671" y1="136.429" y2="139.87" gradientUnits="userSpaceOnUse"><stop stop-color="#763DC6"/><stop offset=".563" stop-color="#A551E0"/><stop offset="1" stop-color="#C960F5"/></linearGradient><linearGradient id="paint38_linear" x1="64.067" x2="64.067" y1="136.429" y2="139.87" gradientUnits="userSpaceOnUse"><stop stop-color="#763DC6"/><stop offset=".563" stop-color="#A551E0"/><stop offset="1" stop-color="#C960F5"/></linearGradient><linearGradient id="paint39_linear" x1="67.464" x2="67.464" y1="136.429" y2="139.87" gradientUnits="userSpaceOnUse"><stop stop-color="#763DC6"/><stop offset=".563" stop-color="#A551E0"/><stop offset="1" stop-color="#C960F5"/></linearGradient><linearGradient id="paint40_linear" x1="70.86" x2="70.86" y1="136.429" y2="139.87" gradientUnits="userSpaceOnUse"><stop stop-color="#763DC6"/><stop offset=".563" stop-color="#A551E0"/><stop offset="1" stop-color="#C960F5"/></linearGradient><linearGradient id="paint41_linear" x1="74.257" x2="74.257" y1="136.429" y2="139.87" gradientUnits="userSpaceOnUse"><stop stop-color="#763DC6"/><stop offset=".563" stop-color="#A551E0"/><stop offset="1" stop-color="#C960F5"/></linearGradient><linearGradient id="paint42_linear" x1="77.653" x2="77.653" y1="136.429" y2="139.87" gradientUnits="userSpaceOnUse"><stop stop-color="#763DC6"/><stop offset=".563" stop-color="#A551E0"/><stop offset="1" stop-color="#C960F5"/></linearGradient><linearGradient id="paint43_linear" x1="60.671" x2="60.671" y1="140.429" y2="143.87" gradientUnits="userSpaceOnUse"><stop stop-color="#763DC6"/><stop offset=".563" stop-color="#A551E0"/><stop offset="1" stop-color="#C960F5"/></linearGradient><linearGradient id="paint44_linear" x1="64.067" x2="64.067" y1="140.429" y2="143.87" gradientUnits="userSpaceOnUse"><stop stop-color="#763DC6"/><stop offset=".563" stop-color="#A551E0"/><stop offset="1" stop-color="#C960F5"/></linearGradient><linearGradient id="paint45_linear" x1="67.464" x2="67.464" y1="140.429" y2="143.87" gradientUnits="userSpaceOnUse"><stop stop-color="#763DC6"/><stop offset=".563" stop-color="#A551E0"/><stop offset="1" stop-color="#C960F5"/></linearGradient><linearGradient id="paint46_linear" x1="70.86" x2="70.86" y1="140.429" y2="143.87" gradientUnits="userSpaceOnUse"><stop stop-color="#763DC6"/><stop offset=".563" stop-color="#A551E0"/><stop offset="1" stop-color="#C960F5"/></linearGradient><linearGradient id="paint47_linear" x1="74.257" x2="74.257" y1="140.429" y2="143.87" gradientUnits="userSpaceOnUse"><stop stop-color="#763DC6"/><stop offset=".563" stop-color="#A551E0"/><stop offset="1" stop-color="#C960F5"/></linearGradient><linearGradient id="paint48_linear" x1="77.653" x2="77.653" y1="140.429" y2="143.87" gradientUnits="userSpaceOnUse"><stop stop-color="#763DC6"/><stop offset=".563" stop-color="#A551E0"/><stop offset="1" stop-color="#C960F5"/></linearGradient><linearGradient id="paint49_linear" x1="102.5" x2="102.5" y1="23" y2="61" gradientUnits="userSpaceOnUse"><stop stop-color="#763DC6" stop-opacity="0"/><stop offset=".604" stop-color="#C960F5"/><stop offset="1" stop-color="#C960F5"/></linearGradient></defs></svg>