<svg xmlns="http://www.w3.org/2000/svg" viewBox="0 0 100 100"><path fill="white" d="M50 89c-11.1 0-16.4-9-17.5-17.5-.3-2.3-2.3-3.9-4.6-3.9H9.7v-5h18.1c4.8 0 8.9 3.6 9.6 8.3.5 3 2.7 13.1 12.6 13.1 8.3 0 11.3-7.3 12.3-13.5.8-4.6 4.8-7.9 9.5-7.9h18.4v5H71.9c-2.3 0-4.2 1.6-4.6 3.8C65.3 82.8 59.2 89 50 89z"/><path fill="white" d="M55 42.4c.1-1.8.3-3.6.4-5.4.2-1.8.4-3.6.6-5.3.2-1.7.5-3.4.7-4.9.2-1.6.6-3 .8-4.4.3-1.3.6-2.6.8-3.7.3-1.1.5-2 .8-2.8.5-1.6.8-2.4.8-2.4s-.5.8-1.2 2.2c-.4.7-.8 1.6-1.3 2.6s-1 2.2-1.6 3.5c-.5 1.3-1.1 2.7-1.7 4.2-.6 1.5-1.1 3.1-1.7 4.8-.6 1.7-1.1 3.4-1.6 5.2l-1.5 5.4c-.4 1.8-.9 3.7-1.3 5.5-.4 1.8-.8 3.6-1.1 5.4-.3 1.8-.6 3.4-.9 5-.3 1.6-.5 3.2-.7 4.6-.1.8-.2 1.6-.3 2.3-2.3 1.6-3.8 4.2-3.8 7.1 0 4.8 3.9 8.6 8.6 8.6 4.8 0 8.6-3.9 8.6-8.6 0-2.8-1.4-5.3-3.5-6.9 0-.7-.1-1.4-.1-2.1-.1-1.3-.2-2.8-.2-4.3 0-1.6-.1-3.2-.1-4.9 0-1.7 0-3.5.1-5.3.2-1.8.4-3.6.4-5.4z"/><circle fill="white" cx="63" cy="50.9" r="3.6"/><circle fill="white" cx="62.6" cy="37.2" r="3.2"/><circle fill="white" cx="42.4" cy="41.1" r="3.2"/><circle fill="white" cx="63.8" cy="24.6" r="2.5"/><circle fill="white" cx="47.3" cy="28.4" r="2.5"/><circle fill="white" cx="37.6" cy="55.8" r="3.6"/></svg>